<svg aria-hidden="true" style="position: absolute; width: 0; height: 0; overflow: hidden;" version="1.1" xmlns="http://www.w3.org/2000/svg" xmlns:xlink="http://www.w3.org/1999/xlink">
<defs>
<symbol id="icon-newspaper-o" viewBox="0 0 32 28">
<path d="M16 8h-6v6h6v-6zM18 18v2h-10v-2h10zM18 6v10h-10v-10h10zM28 18v2h-8v-2h8zM28 14v2h-8v-2h8zM28 10v2h-8v-2h8zM28 6v2h-8v-2h8zM4 21v-15h-2v15c0 0.547 0.453 1 1 1s1-0.453 1-1zM30 21v-17h-24v17c0 0.344-0.063 0.688-0.172 1h23.172c0.547 0 1-0.453 1-1zM32 2v19c0 1.656-1.344 3-3 3h-26c-1.656 0-3-1.344-3-3v-17h4v-2h28z"></path>
</symbol>
<symbol id="icon-mail-envelope-open" viewBox="0 0 32 32">
<path d="M16.5 3l-12.5 11v14.006c0 1.101 0.89 1.994 2.004 1.994h20.993c1.107 0 2.004-0.895 2.004-1.994v-14.006l-12.5-11zM13.5 23h6l7 6h-20l7-6zM16.5 4.3l11 9.7-9 8h-4l-9-8 11-9.7zM27.685 28.725l-7.685-6.708 8-7.017v13c0 0.283-0.121 0.542-0.315 0.725v0 0zM5.315 28.725v0 0c-0.194-0.183-0.315-0.442-0.315-0.725v-13l8 7.017-7.685 6.708z"></path>
</symbol>
<symbol id="icon-location" viewBox="0 0 32 32">
<path d="M16.002 17.746c3.309 0 6-2.692 6-6s-2.691-6-6-6c-3.309 0-6 2.691-6 6s2.691 6 6 6zM16.002 6.746c2.758 0 5 2.242 5 5s-2.242 5-5 5c-2.758 0-5-2.242-5-5s2.242-5 5-5zM16 0c-6.618 0-12 5.316-12 12.001 0 7 6.001 14.161 10.376 19.194 0.016 0.020 0.718 0.805 1.586 0.805 0.002 0 0.073 0 0.077 0 0.867 0 1.57-0.785 1.586-0.805 4.377-5.033 10.377-12.193 10.377-19.194 0-6.685-5.383-12.001-12.002-12.001zM16.117 29.883c-0.021 0.020-0.082 0.064-0.135 0.098-0.010-0.027-0.084-0.086-0.129-0.133-3.665-4.217-9.853-11.334-9.853-17.847 0-5.514 4.487-10.001 10-10.001 5.516 0 10.002 4.487 10.002 10.002 0 6.512-6.188 13.629-9.885 17.881z"></path>
</symbol>
<symbol id="icon-phone" viewBox="0 0 32 32">
<path d="M24 0h-16c-1.658 0-3 1.343-3 3v26c0 1.658 1.343 3 3 3h16c1.656 0 3-1.344 3-3v-26c0-1.658-1.344-3-3-3zM25 29c0 0.551-0.449 1-1 1h-16c-0.552 0-1-0.447-1-1v-2.004h18v2.004zM25 25.996h-18v-19.996h18v19.996zM25 5h-18v-2c0-0.552 0.448-1 1-1h16c0.551 0 1 0.448 1 1v2zM18 3.5c0 0.276-0.225 0.5-0.5 0.5h-3c-0.277 0-0.5-0.224-0.5-0.5v0c0-0.277 0.223-0.5 0.5-0.5h3c0.275 0 0.5 0.223 0.5 0.5v0zM17 28.496c0 0.275-0.225 0.5-0.5 0.5h-1c-0.276 0-0.5-0.225-0.5-0.5v0c0-0.277 0.224-0.5 0.5-0.5h1c0.275 0 0.5 0.223 0.5 0.5v0z"></path>
</symbol>
<symbol id="icon-clock" viewBox="0 0 32 32">
<path d="M15 10c0-0.552 0.448-1 1-1s1 0.448 1 1c0 0.552-0.448 1-1 1s-1-0.448-1-1zM15 22c0-0.552 0.448-1 1-1s1 0.448 1 1c0 0.552-0.448 1-1 1s-1-0.448-1-1zM9 16c0-0.552 0.448-1 1-1s1 0.448 1 1c0 0.552-0.448 1-1 1s-1-0.448-1-1zM21 16c0-0.552 0.448-1 1-1s1 0.448 1 1c0 0.552-0.448 1-1 1s-1-0.448-1-1zM10.757 20.242c0-0.552 0.448-1 1-1s1 0.448 1 1c0 0.552-0.448 1-1 1s-1-0.448-1-1zM10.757 11.757c0-0.552 0.448-1 1-1s1 0.448 1 1c0 0.552-0.448 1-1 1s-1-0.448-1-1zM19.242 20.242c0-0.552 0.448-1 1-1s1 0.448 1 1c0 0.552-0.448 1-1 1s-1-0.448-1-1zM26 14c-0.070 0-0.129 0.033-0.197 0.040-0.348-1.745-1.17-3.306-2.297-4.594l-1.436-7.812c-0.175-0.947-1.002-1.634-1.966-1.634h-8c-0.964 0-1.79 0.688-1.967 1.635l-1.4 7.549c-1.68 1.787-2.737 4.168-2.737 6.816 0 2.583 1.014 4.905 2.621 6.678l1.412 7.688c0.176 0.946 1.003 1.634 1.967 1.634h8c0.963 0 1.789-0.688 1.967-1.635l1.424-7.682c1.189-1.311 2.053-2.92 2.412-4.725 0.068 0.009 0.127 0.042 0.197 0.042 1.104 0 2-0.896 2-2 0-1.105-0.896-2-2-2zM12.104 2h8l1 5.387c-1.477-0.859-3.168-1.387-5-1.387-1.831 0-3.523 0.528-5 1.387l1-5.387zM20 30h-8l-1-5.387c1.476 0.858 3.168 1.387 5 1.387 1.831 0 3.524-0.529 5-1.387l-1 5.387zM16 24c-4.411 0-8-3.59-8-8s3.589-8 8-8 8 3.589 8 8c0 4.41-3.59 8-8 8zM20.941 11.026c0.121 0.121 0.133 0.316 0.028 0.449l-2.426 3.021-1.848 2.225c-0.189 0.182-0.449 0.275-0.699 0.277-0.269-0.002-0.52-0.106-0.707-0.292s-0.289-0.435-0.289-0.698c0-0.272 0.105-0.526 0.296-0.718l5.192-4.285c0.137-0.11 0.332-0.1 0.453 0.021z"></path>
</symbol>
<symbol id="icon-home" viewBox="0 0 24 24">
<path d="M2.386 8.211c-0.236 0.184-0.386 0.469-0.386 0.789v11c0 0.828 0.337 1.58 0.879 2.121s1.293 0.879 2.121 0.879h14c0.828 0 1.58-0.337 2.121-0.879s0.879-1.293 0.879-2.121v-11c-0.001-0.3-0.134-0.593-0.386-0.789l-9-7c-0.358-0.275-0.861-0.285-1.228 0zM16 21v-9c0-0.552-0.448-1-1-1h-6c-0.552 0-1 0.448-1 1v9h-3c-0.276 0-0.525-0.111-0.707-0.293s-0.293-0.431-0.293-0.707v-10.511l8-6.222 8 6.222v10.511c0 0.276-0.111 0.525-0.293 0.707s-0.431 0.293-0.707 0.293zM10 21v-8h4v8z"></path>
</symbol>
<symbol id="icon-info" viewBox="0 0 24 24">
<path d="M23 12c0-3.037-1.232-5.789-3.222-7.778s-4.741-3.222-7.778-3.222-5.789 1.232-7.778 3.222-3.222 4.741-3.222 7.778 1.232 5.789 3.222 7.778 4.741 3.222 7.778 3.222 5.789-1.232 7.778-3.222 3.222-4.741 3.222-7.778zM21 12c0 2.486-1.006 4.734-2.636 6.364s-3.878 2.636-6.364 2.636-4.734-1.006-6.364-2.636-2.636-3.878-2.636-6.364 1.006-4.734 2.636-6.364 3.878-2.636 6.364-2.636 4.734 1.006 6.364 2.636 2.636 3.878 2.636 6.364zM13 16v-4c0-0.552-0.448-1-1-1s-1 0.448-1 1v4c0 0.552 0.448 1 1 1s1-0.448 1-1zM12 9c0.552 0 1-0.448 1-1s-0.448-1-1-1-1 0.448-1 1 0.448 1 1 1z"></path>
</symbol>
<symbol id="icon-contacts" viewBox="0 0 24 24">
<path d="M19 3h-11c-1.654 0-3 1.346-3 3v1h-1c-0.553 0-1 0.448-1 1s0.447 1 1 1h1v2h-1c-0.553 0-1 0.448-1 1s0.447 1 1 1h1v2h-1c-0.553 0-1 0.448-1 1s0.447 1 1 1h1v1c0 1.654 1.346 3 3 3h11c1.654 0 3-1.346 3-3v-12c0-1.654-1.346-3-3-3zM7 6c0-0.551 0.449-1 1-1v2h-1v-1zM7 9h1v2h-1v-2zM7 13h1v2h-1v-2zM7 18v-1h1v2c-0.551 0-1-0.449-1-1zM20 18c0 0.551-0.449 1-1 1h-10v-14h10c0.551 0 1 0.449 1 1v12z"></path>
<path d="M16 10.5c0 1.105-0.895 2-2 2s-2-0.895-2-2c0-1.105 0.895-2 2-2s2 0.895 2 2z"></path>
<path d="M14 13.356c-1.562 0-2.5 0.715-2.5 1.429 0 0.357 0.938 0.715 2.5 0.715 1.466 0 2.5-0.357 2.5-0.715 0-0.714-0.98-1.429-2.5-1.429z"></path>
</symbol>
<symbol id="icon-instagram" viewBox="0 0 32 32">
<path d="M16 2.881c4.275 0 4.781 0.019 6.462 0.094 1.563 0.069 2.406 0.331 2.969 0.55 0.744 0.288 1.281 0.638 1.837 1.194 0.563 0.563 0.906 1.094 1.2 1.838 0.219 0.563 0.481 1.412 0.55 2.969 0.075 1.688 0.094 2.194 0.094 6.463s-0.019 4.781-0.094 6.463c-0.069 1.563-0.331 2.406-0.55 2.969-0.288 0.744-0.637 1.281-1.194 1.837-0.563 0.563-1.094 0.906-1.837 1.2-0.563 0.219-1.413 0.481-2.969 0.55-1.688 0.075-2.194 0.094-6.463 0.094s-4.781-0.019-6.463-0.094c-1.563-0.069-2.406-0.331-2.969-0.55-0.744-0.288-1.281-0.637-1.838-1.194-0.563-0.563-0.906-1.094-1.2-1.837-0.219-0.563-0.481-1.413-0.55-2.969-0.075-1.688-0.094-2.194-0.094-6.463s0.019-4.781 0.094-6.463c0.069-1.563 0.331-2.406 0.55-2.969 0.288-0.744 0.638-1.281 1.194-1.838 0.563-0.563 1.094-0.906 1.838-1.2 0.563-0.219 1.412-0.481 2.969-0.55 1.681-0.075 2.188-0.094 6.463-0.094zM16 0c-4.344 0-4.887 0.019-6.594 0.094-1.7 0.075-2.869 0.35-3.881 0.744-1.056 0.412-1.95 0.956-2.837 1.85-0.894 0.888-1.438 1.781-1.85 2.831-0.394 1.019-0.669 2.181-0.744 3.881-0.075 1.713-0.094 2.256-0.094 6.6s0.019 4.887 0.094 6.594c0.075 1.7 0.35 2.869 0.744 3.881 0.413 1.056 0.956 1.95 1.85 2.837 0.887 0.887 1.781 1.438 2.831 1.844 1.019 0.394 2.181 0.669 3.881 0.744 1.706 0.075 2.25 0.094 6.594 0.094s4.888-0.019 6.594-0.094c1.7-0.075 2.869-0.35 3.881-0.744 1.050-0.406 1.944-0.956 2.831-1.844s1.438-1.781 1.844-2.831c0.394-1.019 0.669-2.181 0.744-3.881 0.075-1.706 0.094-2.25 0.094-6.594s-0.019-4.887-0.094-6.594c-0.075-1.7-0.35-2.869-0.744-3.881-0.394-1.063-0.938-1.956-1.831-2.844-0.887-0.887-1.781-1.438-2.831-1.844-1.019-0.394-2.181-0.669-3.881-0.744-1.712-0.081-2.256-0.1-6.6-0.1v0z"></path>
<path d="M16 7.781c-4.537 0-8.219 3.681-8.219 8.219s3.681 8.219 8.219 8.219 8.219-3.681 8.219-8.219c0-4.537-3.681-8.219-8.219-8.219zM16 21.331c-2.944 0-5.331-2.387-5.331-5.331s2.387-5.331 5.331-5.331c2.944 0 5.331 2.387 5.331 5.331s-2.387 5.331-5.331 5.331z"></path>
<path d="M26.462 7.456c0 1.060-0.859 1.919-1.919 1.919s-1.919-0.859-1.919-1.919c0-1.060 0.859-1.919 1.919-1.919s1.919 0.859 1.919 1.919z"></path>
</symbol>
</defs>
</svg>
